<?xml version="1.0" encoding="utf-8"?>
<!-- Generator: Adobe Illustrator 24.0.1, SVG Export Plug-In . SVG Version: 6.00 Build 0)  -->
<svg version="1.1" id="Layer_1" xmlns="http://www.w3.org/2000/svg" xmlns:xlink="http://www.w3.org/1999/xlink" x="0px" y="0px"
	 viewBox="0 0 595.28 168.75" style="enable-background:new 0 0 595.28 168.75;" xml:space="preserve">
<style type="text/css">
	.st0{fill-rule:evenodd;clip-rule:evenodd;fill:url(#SVGID_1_);}
	.st1{fill-rule:evenodd;clip-rule:evenodd;fill:url(#SVGID_2_);}
	.st2{fill:url(#SVGID_3_);}
	.st3{fill:url(#SVGID_4_);}
	.st4{fill:url(#SVGID_5_);}
	.st5{fill:url(#SVGID_6_);}
	.st6{fill:url(#SVGID_7_);}
	.st7{fill:url(#SVGID_8_);}
	.st8{fill:url(#SVGID_9_);}
	.st9{fill:url(#SVGID_10_);}
	.st10{fill:url(#SVGID_11_);}
	.st11{fill:url(#SVGID_12_);}
	.st12{fill:url(#SVGID_13_);}
	.st13{fill:url(#SVGID_14_);}
	.st14{fill:url(#SVGID_15_);}
	.st15{fill:url(#SVGID_16_);}
</style>
<g>
	<linearGradient id="SVGID_1_" gradientUnits="userSpaceOnUse" x1="0" y1="84.8748" x2="150.3718" y2="84.8748">
		<stop  offset="0" style="stop-color:#000000"/>
		<stop  offset="0.1173" style="stop-color:#2A2F33"/>
		<stop  offset="0.3603" style="stop-color:#4C5357"/>
		<stop  offset="0.7631" style="stop-color:#747678"/>
		<stop  offset="1" style="stop-color:#000000"/>
	</linearGradient>
	<path class="st0" d="M35.71,131.04c-3.08-1.78-6.19-3.58-9.27-5.38c-1.28-0.73-2.4-1.44-3.4-2.12L0,109.96
		C-0.1,125.55,1.41,129,13.8,136.23c15.04,8.8,30.22,17.26,45.29,26.14c1.02,0.6,1.98,1.15,2.9,1.67
		c12.67,7.13,16.25,6.16,31.42-2.95c8.67-5.2,17.68-10.16,26.54-15.17c6.42-3.61,12.8-7.26,18.94-11.07
		c10.19-6.3,11.57-10.26,11.46-24.55c0-0.08,0-0.13,0-0.21l-26.41,15.59c-0.37,0.24-0.76,0.44-1.12,0.65
		c-2.27,1.38-4.6,2.74-6.95,4.1l-10.45,6.16c0.05-0.11,0.13-0.24,0.18-0.37c-5.35,3.03-10.73,6.03-15.96,9.17
		c-12.9,7.76-15.23,8.1-27.24,1.02C53.52,141.2,44.62,136.13,35.71,131.04L35.71,131.04z M138.88,103.95
		c9.69-6.03,11.41-9.9,11.46-22.62c0-0.65,0-1.31,0-1.96c0-0.08,0-0.16,0.03-0.23l-15.51,9.14l-9.09,5.38
		c-0.97,0.6-1.96,1.18-2.92,1.78c-3.08,1.85-6.24,3.68-9.4,5.49l-6.11,3.6c0-0.05,0-0.1,0-0.16c-5.93,3.32-11.88,6.66-17.68,10.13
		c-12.9,7.73-15.23,8.07-27.24,0.99C41.66,103.27,20.95,91.05,0.21,78.82c0.03,2.87,0.03,5.75,0.03,8.62
		c0.78,8.8,3.79,12.17,13.56,17.89c0.57,0.31,1.12,0.65,1.7,0.99c14.5,8.44,29.1,16.58,43.59,25.15
		c15.12,8.88,18.05,8.46,34.32-1.28c4.57-2.74,9.25-5.43,13.92-8.07c5.17-2.93,10.34-5.8,15.46-8.72c4.08-2.3,8.12-4.65,12.09-7.03
		C136.22,105.57,137.55,104.76,138.88,103.95L138.88,103.95z M134.86,32.51c-15.31-8.8-30.61-17.76-45.89-26.48
		C75.54-1.62,72.22-0.55,55.98,9.24C43.41,16.79,31.01,23.87,18.24,31l-0.16,0.08l-0.6,0.34c-0.63,0.37-1.25,0.7-1.85,1.04v0.03
		l-0.13,0.08v-0.03c-0.73,0.42-1.44,0.84-2.12,1.23h-0.03l-0.03,0.03l0,0c-5.54,3.27-8.83,5.77-10.76,9.09
		c-2.77,4.73-2.98,13.14-1.25,18.39c1.28,3.92,3.73,6.58,8.33,9.64c1.23,0.81,2.61,1.67,4.15,2.56c0.57,0.34,1.12,0.68,1.7,0.99l0,0
		l0.13,0.08c14.44,8.44,29.02,16.56,43.46,25.1c15.12,8.88,18.05,8.46,34.32-1.28c4.57-2.74,9.27-5.43,13.97-8.1
		c5.15-2.93,10.34-5.8,15.46-8.72c0-1.88,0-3.76-0.03-5.62c-0.03-5.01-0.31-8.65-1.25-11.57c-1.67-5.2-5.46-8.18-13.45-12.82
		L79.22,34.71c-2.3-1.33-2.17-1.25-5.75,0.99l-3.27,2.06c-3.63,2.3-3.27,7.76,0.05,9.74c8.46,4.91,16.93,9.85,25.39,14.71
		c6.66,3.84,9.61,6.27,10.87,10.76c-5.67,3.19-11.36,6.37-16.87,9.69c-12.9,7.73-15.23,8.07-27.24,0.99
		C50.44,76.6,38.37,69.89,26.44,62.89c-2.74-1.59-4.83-2.98-6.4-4.39c-3.32-3.03-4.36-5.02-1.38-8.57
		c2.04-2.45,5.38-4.52,10.71-7.52c10.34-5.77,20.4-11.49,30.56-17.6c0.31-0.18,0.63-0.37,0.94-0.55
		c12.09-7.26,14.86-7.91,25.28-1.99c12.33,7.03,24.71,14.29,37.04,21.39c14.63,8.41,11.99,15.65,12.72,30.27
		c1.36-0.81,1.65-1.02,2.98-1.83c8.59-5.33,10.92-8.98,11.39-18.62c-0.52-10.71-3.34-14.03-14.63-20.5
		c-0.26-0.16-0.52-0.31-0.76-0.44L134.86,32.51z"/>
	<linearGradient id="SVGID_2_" gradientUnits="userSpaceOnUse" x1="0.2079" y1="53.4966" x2="150.2679" y2="53.4966">
		<stop  offset="0" style="stop-color:#F9B234"/>
		<stop  offset="0.6333" style="stop-color:#D7681F"/>
		<stop  offset="1" style="stop-color:#C74117"/>
	</linearGradient>
	<path class="st1" d="M134.86,32.51c-15.31-8.8-30.61-17.76-45.89-26.48C75.54-1.62,72.22-0.55,55.98,9.24
		C43.41,16.79,31.01,23.87,18.24,31l-0.16,0.08l-0.6,0.34c-0.63,0.37-1.25,0.7-1.85,1.04v0.03l-0.13,0.08v-0.03
		c-0.73,0.42-1.44,0.84-2.12,1.23h-0.03l-0.03,0.03l0,0c-5.54,3.27-8.83,5.77-10.76,9.09c-2.77,4.73-2.98,13.14-1.25,18.39
		c1.28,3.92,3.73,6.58,8.33,9.64c1.23,0.81,2.61,1.67,4.15,2.56c0.57,0.34,1.12,0.68,1.7,0.99l0,0l0.13,0.08
		c14.44,8.44,29.02,16.56,43.46,25.1c15.12,8.88,18.05,8.46,34.32-1.28c4.57-2.74,9.27-5.43,13.97-8.1
		c5.15-2.93,10.34-5.8,15.46-8.72c0-1.88,0-3.76-0.03-5.62c-0.03-5.01-0.31-8.65-1.25-11.57c-1.67-5.2-5.46-8.18-13.45-12.82
		L79.22,34.71c-2.3-1.33-2.17-1.25-5.75,0.99l-3.27,2.06c-3.63,2.3-3.27,7.76,0.05,9.74c8.46,4.91,16.93,9.85,25.39,14.71
		c6.66,3.84,9.61,6.27,10.87,10.76c-5.67,3.19-11.36,6.37-16.87,9.69c-12.9,7.73-15.23,8.07-27.24,0.99
		C50.44,76.6,38.37,69.89,26.44,62.89c-2.74-1.59-4.83-2.98-6.4-4.39c-3.32-3.03-4.36-5.02-1.38-8.57
		c2.04-2.45,5.38-4.52,10.71-7.52c10.34-5.77,20.4-11.49,30.56-17.6c0.31-0.18,0.63-0.37,0.94-0.55
		c12.09-7.26,14.86-7.91,25.28-1.99c12.33,7.03,24.71,14.29,37.04,21.39c14.63,8.41,11.99,15.65,12.72,30.27
		c1.36-0.81,1.65-1.02,2.98-1.83c8.59-5.33,10.92-8.98,11.39-18.62c-0.52-10.71-3.34-14.03-14.63-20.5
		c-0.26-0.16-0.52-0.31-0.76-0.44L134.86,32.51z"/>
</g>
<g>
	<g>
		<linearGradient id="SVGID_3_" gradientUnits="userSpaceOnUse" x1="172.5865" y1="97.62" x2="221.0595" y2="49.147">
			<stop  offset="0" style="stop-color:#272D34"/>
			<stop  offset="0.1173" style="stop-color:#575F67"/>
			<stop  offset="0.3603" style="stop-color:#5E666C"/>
			<stop  offset="0.7631" style="stop-color:#8B8E91"/>
			<stop  offset="1" style="stop-color:#272C30"/>
		</linearGradient>
		<path class="st2" d="M191.37,92.12l-24.46-37.3h12.76l17.24,27.27l17.42-27.27h12.4l-24.46,37.04v24.54h-10.91V92.12z"/>
		<linearGradient id="SVGID_4_" gradientUnits="userSpaceOnUse" x1="162.1211" y1="85.6116" x2="231.5442" y2="85.6116">
			<stop  offset="8.379890e-03" style="stop-color:#E5E8EE"/>
			<stop  offset="0.2263" style="stop-color:#C7CDDA"/>
			<stop  offset="0.3911" style="stop-color:#C7CDDA"/>
			<stop  offset="0.5" style="stop-color:#E5E8EE"/>
			<stop  offset="0.6341" style="stop-color:#FFFFFF"/>
			<stop  offset="0.7737" style="stop-color:#E5E8EE"/>
			<stop  offset="0.9078" style="stop-color:#ACB8C3"/>
			<stop  offset="1" style="stop-color:#525D6B"/>
		</linearGradient>
		<path class="st3" d="M226.73,54.82l-24.46,37.04v24.54h-10.91V92.12l-24.46-37.3h12.76l17.24,27.27l17.42-27.27H226.73
			 M231.54,52.23h-4.81h-12.4h-1.42l-0.76,1.19l-15.23,23.84l-15.07-23.83l-0.76-1.21h-1.43h-12.76h-4.79l2.63,4.01l24.03,36.65
			v23.51v2.59h2.59h10.91h2.59v-2.59V92.64l24.03-36.39L231.54,52.23L231.54,52.23z"/>
	</g>
	<g>
		<linearGradient id="SVGID_5_" gradientUnits="userSpaceOnUse" x1="224.705" y1="104.876" x2="273.3933" y2="56.1877">
			<stop  offset="0" style="stop-color:#272D34"/>
			<stop  offset="0.1173" style="stop-color:#575F67"/>
			<stop  offset="0.3603" style="stop-color:#5E666C"/>
			<stop  offset="0.7631" style="stop-color:#8B8E91"/>
			<stop  offset="1" style="stop-color:#272C30"/>
		</linearGradient>
		<path class="st4" d="M236.23,54.82h24.28c3.58,0,6.82,0.49,9.72,1.45c2.9,0.97,5.37,2.36,7.39,4.18c2.02,1.82,3.58,3.99,4.66,6.51
			c1.09,2.52,1.63,5.34,1.63,8.45v0.18c0,3.46-0.65,6.5-1.94,9.1c-1.3,2.61-3.06,4.79-5.29,6.55c-2.23,1.76-4.85,3.09-7.85,4
			c-3,0.91-6.2,1.36-9.61,1.36h-12.26v19.79h-10.73V54.82z M259.59,86.84c4.12,0,7.37-1.03,9.75-3.09c2.38-2.06,3.57-4.71,3.57-7.95
			v-0.18c0-3.65-1.21-6.4-3.62-8.26c-2.41-1.86-5.65-2.78-9.71-2.78h-12.62v22.26H259.59z"/>
		<linearGradient id="SVGID_6_" gradientUnits="userSpaceOnUse" x1="233.6429" y1="85.6116" x2="286.5008" y2="85.6116">
			<stop  offset="8.379890e-03" style="stop-color:#E5E8EE"/>
			<stop  offset="0.2263" style="stop-color:#C7CDDA"/>
			<stop  offset="0.3911" style="stop-color:#C7CDDA"/>
			<stop  offset="0.5" style="stop-color:#E5E8EE"/>
			<stop  offset="0.6341" style="stop-color:#FFFFFF"/>
			<stop  offset="0.7737" style="stop-color:#E5E8EE"/>
			<stop  offset="0.9078" style="stop-color:#ACB8C3"/>
			<stop  offset="1" style="stop-color:#525D6B"/>
		</linearGradient>
		<path class="st5" d="M260.51,54.82c3.58,0,6.82,0.49,9.72,1.45c2.9,0.97,5.37,2.36,7.39,4.18c2.02,1.82,3.58,3.99,4.66,6.51
			c1.09,2.52,1.63,5.34,1.63,8.45v0.18c0,3.46-0.65,6.5-1.94,9.11c-1.3,2.61-3.06,4.79-5.29,6.55c-2.23,1.76-4.85,3.09-7.85,4
			c-3,0.91-6.2,1.36-9.61,1.36h-12.26v19.79h-10.73V54.82H260.51 M246.96,86.84h12.62c4.12,0,7.37-1.03,9.75-3.09
			c2.39-2.06,3.58-4.71,3.58-7.95v-0.18c0-3.65-1.21-6.4-3.62-8.26c-2.41-1.86-5.65-2.78-9.71-2.78h-12.62V86.84 M260.51,52.23
			h-24.28h-2.59v2.59v61.58v2.59h2.59h10.73h2.59v-2.59V99.2h9.67c3.65,0,7.13-0.5,10.36-1.48c3.3-1,6.23-2.5,8.7-4.45
			c2.52-1.99,4.54-4.49,6.01-7.43c1.47-2.96,2.21-6.41,2.21-10.26c0-3.62-0.62-6.81-1.84-9.64c-1.23-2.86-3.02-5.35-5.31-7.41
			c-2.28-2.05-5.07-3.63-8.3-4.71C267.89,52.77,264.34,52.23,260.51,52.23L260.51,52.23z M249.55,67.18h10.04
			c3.46,0,6.19,0.76,8.13,2.25c1.76,1.35,2.61,3.38,2.61,6.21c0,2.65-0.88,4.61-2.68,6.17c-1.89,1.63-4.6,2.46-8.06,2.46h-10.04
			V67.18L249.55,67.18z"/>
	</g>
	<g>
		<linearGradient id="SVGID_7_" gradientUnits="userSpaceOnUse" x1="292.5179" y1="108.9969" x2="338.2188" y2="63.296">
			<stop  offset="0" style="stop-color:#272D34"/>
			<stop  offset="0.1173" style="stop-color:#575F67"/>
			<stop  offset="0.3603" style="stop-color:#5E666C"/>
			<stop  offset="0.7631" style="stop-color:#8B8E91"/>
			<stop  offset="1" style="stop-color:#272C30"/>
		</linearGradient>
		<path class="st6" d="M316.64,117.28c-4.75,0-9.3-0.81-13.63-2.42c-4.34-1.61-8.36-4.09-12.05-7.43l6.51-7.74
			c2.99,2.58,6.01,4.56,9.06,5.94c3.05,1.38,6.51,2.07,10.38,2.07c3.34,0,6-0.7,7.96-2.11c1.96-1.41,2.95-3.28,2.95-5.63v-0.18
			c0-1.11-0.19-2.09-0.57-2.95c-0.38-0.85-1.09-1.66-2.12-2.42c-1.03-0.76-2.44-1.47-4.23-2.11c-1.8-0.65-4.13-1.29-7.01-1.94
			c-3.29-0.76-6.22-1.63-8.78-2.59c-2.56-0.97-4.7-2.14-6.44-3.52c-1.74-1.38-3.06-3.06-3.97-5.06c-0.91-1.99-1.37-4.4-1.37-7.21
			V71.8c0-2.64,0.52-5.06,1.57-7.26c1.05-2.2,2.49-4.08,4.32-5.63c1.83-1.55,4.04-2.77,6.61-3.65c2.57-0.88,5.39-1.32,8.44-1.32
			c4.52,0,8.58,0.66,12.18,1.98c3.61,1.32,6.99,3.24,10.16,5.76l-5.81,8.18c-2.81-2.05-5.6-3.62-8.35-4.71
			c-2.76-1.09-5.54-1.63-8.36-1.63c-3.17,0-5.63,0.7-7.39,2.11s-2.64,3.14-2.64,5.19v0.18c0,1.17,0.2,2.22,0.62,3.12
			c0.41,0.91,1.16,1.73,2.25,2.46s2.59,1.42,4.5,2.07c1.91,0.65,4.34,1.32,7.27,2.02c3.23,0.82,6.1,1.73,8.6,2.73
			c2.5,1,4.57,2.22,6.22,3.65c1.65,1.44,2.9,3.11,3.75,5.01c0.85,1.91,1.28,4.12,1.28,6.64v0.18c0,2.87-0.54,5.45-1.62,7.74
			c-1.07,2.29-2.57,4.22-4.49,5.81c-1.92,1.58-4.23,2.78-6.92,3.61C322.82,116.87,319.86,117.28,316.64,117.28z"/>
		<linearGradient id="SVGID_8_" gradientUnits="userSpaceOnUse" x1="287.3622" y1="85.6129" x2="341.131" y2="85.6129">
			<stop  offset="8.379890e-03" style="stop-color:#E5E8EE"/>
			<stop  offset="0.2263" style="stop-color:#C7CDDA"/>
			<stop  offset="0.3911" style="stop-color:#C7CDDA"/>
			<stop  offset="0.5" style="stop-color:#E5E8EE"/>
			<stop  offset="0.6341" style="stop-color:#FFFFFF"/>
			<stop  offset="0.7737" style="stop-color:#E5E8EE"/>
			<stop  offset="0.9078" style="stop-color:#ACB8C3"/>
			<stop  offset="1" style="stop-color:#525D6B"/>
		</linearGradient>
		<path class="st7" d="M314.26,53.94c4.52,0,8.58,0.66,12.18,1.98c3.61,1.32,6.99,3.24,10.16,5.76l-5.81,8.18
			c-2.81-2.05-5.6-3.62-8.35-4.71c-2.76-1.09-5.54-1.63-8.36-1.63c-3.17,0-5.63,0.7-7.39,2.11c-1.76,1.41-2.64,3.14-2.64,5.19v0.18
			c0,1.17,0.2,2.22,0.62,3.12c0.41,0.91,1.16,1.73,2.25,2.46c1.09,0.73,2.59,1.42,4.5,2.07c1.91,0.65,4.34,1.32,7.27,2.02
			c3.23,0.82,6.1,1.73,8.6,2.73c2.5,1,4.57,2.22,6.22,3.65c1.65,1.44,2.9,3.11,3.75,5.01c0.85,1.91,1.28,4.12,1.28,6.64v0.18
			c0,2.87-0.54,5.45-1.62,7.74c-1.07,2.29-2.57,4.22-4.49,5.81c-1.92,1.58-4.22,2.78-6.92,3.61c-2.69,0.82-5.65,1.23-8.88,1.23
			c-4.75,0-9.3-0.81-13.63-2.42c-4.34-1.61-8.36-4.09-12.05-7.43l6.51-7.74c2.99,2.58,6.01,4.56,9.06,5.94
			c3.05,1.38,6.51,2.07,10.38,2.07c3.34,0,6-0.7,7.96-2.11c1.96-1.41,2.95-3.28,2.95-5.63v-0.18c0-1.11-0.19-2.09-0.57-2.95
			c-0.38-0.85-1.09-1.66-2.12-2.42s-2.44-1.47-4.23-2.11c-1.8-0.64-4.13-1.29-7.01-1.94c-3.29-0.76-6.22-1.63-8.78-2.59
			c-2.56-0.97-4.7-2.14-6.44-3.52c-1.74-1.38-3.06-3.06-3.97-5.06c-0.91-1.99-1.37-4.4-1.37-7.21V71.8c0-2.64,0.52-5.06,1.57-7.26
			c1.05-2.2,2.49-4.08,4.32-5.63c1.83-1.55,4.04-2.77,6.61-3.65C308.4,54.38,311.21,53.94,314.26,53.94 M314.26,51.36
			c-3.32,0-6.44,0.49-9.27,1.46c-2.87,0.98-5.38,2.37-7.45,4.13c-2.11,1.79-3.78,3.97-4.98,6.49c-1.21,2.54-1.82,5.35-1.82,8.37
			c0,3.36,0.54,6.14,1.6,8.47c1.08,2.36,2.66,4.38,4.72,6.01c1.92,1.53,4.32,2.85,7.13,3.91c2.67,1.01,5.73,1.92,9.11,2.7
			c2.77,0.62,5.03,1.24,6.72,1.85c1.54,0.56,2.74,1.15,3.57,1.76c0.83,0.61,1.16,1.1,1.3,1.4c0.23,0.51,0.35,1.15,0.35,1.89
			c0,1.69-0.57,2.78-1.87,3.7c-1.51,1.08-3.68,1.63-6.46,1.63c-3.49,0-6.62-0.62-9.32-1.84c-2.81-1.27-5.65-3.14-8.43-5.54
			l-1.98-1.71l-1.69,2.01l-6.51,7.74l-1.61,1.91l1.85,1.67c3.92,3.55,8.26,6.22,12.89,7.94c4.61,1.71,9.5,2.58,14.53,2.58
			c3.46,0,6.71-0.45,9.64-1.35c3.01-0.92,5.64-2.29,7.81-4.09c2.21-1.82,3.96-4.08,5.19-6.7c1.24-2.62,1.86-5.6,1.86-8.84
			c0-3.05-0.51-5.64-1.51-7.88c-1-2.24-2.49-4.23-4.41-5.91c-1.86-1.63-4.21-3.01-6.96-4.11c-2.59-1.03-5.6-1.99-8.92-2.83
			c-2.9-0.7-5.27-1.35-7.08-1.97c-1.68-0.57-2.99-1.16-3.88-1.76c-0.68-0.46-1.13-0.92-1.33-1.38c-0.26-0.57-0.39-1.26-0.39-2.06
			c0-1.43,0.53-2.44,1.66-3.34c1.28-1.03,3.22-1.54,5.77-1.54c2.47,0,4.97,0.49,7.41,1.45c2.54,1,5.16,2.48,7.78,4.39l2.12,1.54
			l1.52-2.14l5.81-8.18l1.42-2l-1.92-1.53c-3.37-2.68-7.03-4.76-10.88-6.17C323.46,52.07,319.06,51.36,314.26,51.36L314.26,51.36z"
			/>
	</g>
	<g>
		<linearGradient id="SVGID_9_" gradientUnits="userSpaceOnUse" x1="348.8797" y1="98.8505" x2="394.8889" y2="52.8412">
			<stop  offset="0" style="stop-color:#272D34"/>
			<stop  offset="0.1173" style="stop-color:#575F67"/>
			<stop  offset="0.3603" style="stop-color:#5E666C"/>
			<stop  offset="0.7631" style="stop-color:#8B8E91"/>
			<stop  offset="1" style="stop-color:#272C30"/>
		</linearGradient>
		<path class="st8" d="M366.43,64.85H346.9V54.82h49.97v10.03h-19.53v51.55h-10.91V64.85z"/>
		<linearGradient id="SVGID_10_" gradientUnits="userSpaceOnUse" x1="344.3111" y1="85.6116" x2="399.4572" y2="85.6116">
			<stop  offset="8.379890e-03" style="stop-color:#E5E8EE"/>
			<stop  offset="0.2263" style="stop-color:#C7CDDA"/>
			<stop  offset="0.3911" style="stop-color:#C7CDDA"/>
			<stop  offset="0.5" style="stop-color:#E5E8EE"/>
			<stop  offset="0.6341" style="stop-color:#FFFFFF"/>
			<stop  offset="0.7737" style="stop-color:#E5E8EE"/>
			<stop  offset="0.9078" style="stop-color:#ACB8C3"/>
			<stop  offset="1" style="stop-color:#525D6B"/>
		</linearGradient>
		<path class="st9" d="M396.87,54.82v10.03h-19.53v51.55h-10.91V64.85H346.9V54.82H396.87 M399.46,52.23h-2.59H346.9h-2.59v2.59
			v10.03v2.59h2.59h16.94v48.96v2.59h2.59h10.91h2.59v-2.59V67.44h16.94h2.59v-2.59V54.82V52.23L399.46,52.23z"/>
	</g>
	<g>
		<linearGradient id="SVGID_11_" gradientUnits="userSpaceOnUse" x1="414.8987" y1="108.4857" x2="460.6458" y2="62.7387">
			<stop  offset="0" style="stop-color:#272D34"/>
			<stop  offset="0.1173" style="stop-color:#575F67"/>
			<stop  offset="0.3603" style="stop-color:#5E666C"/>
			<stop  offset="0.7631" style="stop-color:#8B8E91"/>
			<stop  offset="1" style="stop-color:#272C30"/>
		</linearGradient>
		<path class="st10" d="M437.68,117.46c-4.75,0-9.09-0.84-13.02-2.51c-3.93-1.67-7.3-3.94-10.12-6.82s-5.02-6.23-6.6-10.07
			c-1.58-3.84-2.38-7.93-2.38-12.27v-0.18c0-4.34,0.79-8.43,2.38-12.27c1.58-3.84,3.81-7.22,6.69-10.12
			c2.87-2.9,6.27-5.21,10.2-6.91c3.93-1.7,8.27-2.55,13.02-2.55c4.75,0,9.09,0.84,13.02,2.51c3.93,1.67,7.3,3.94,10.12,6.82
			c2.82,2.88,5.02,6.23,6.6,10.07c1.58,3.84,2.38,7.93,2.38,12.27v0.18c0,4.34-0.79,8.43-2.38,12.27
			c-1.58,3.84-3.81,7.21-6.69,10.12c-2.87,2.9-6.27,5.2-10.2,6.91C446.77,116.61,442.43,117.46,437.68,117.46z M437.86,107.52
			c3.03,0,5.82-0.57,8.36-1.71c2.54-1.15,4.71-2.7,6.52-4.66c1.81-1.96,3.23-4.27,4.25-6.91c1.02-2.64,1.53-5.45,1.53-8.45v-0.18
			c0-2.99-0.51-5.82-1.53-8.49c-1.02-2.67-2.46-4.98-4.29-6.95c-1.84-1.96-4.04-3.53-6.61-4.71c-2.57-1.17-5.37-1.76-8.41-1.76
			c-3.04,0-5.83,0.57-8.37,1.72c-2.54,1.14-4.72,2.7-6.53,4.66c-1.81,1.97-3.23,4.27-4.25,6.91c-1.02,2.64-1.53,5.46-1.53,8.45v0.18
			c0,2.99,0.51,5.82,1.53,8.49c1.02,2.67,2.46,4.99,4.29,6.95c1.84,1.97,4.04,3.54,6.61,4.71
			C432.02,106.93,434.82,107.52,437.86,107.52z"/>
		<linearGradient id="SVGID_12_" gradientUnits="userSpaceOnUse" x1="402.9849" y1="85.6115" x2="472.5586" y2="85.6115">
			<stop  offset="8.379890e-03" style="stop-color:#E5E8EE"/>
			<stop  offset="0.2263" style="stop-color:#C7CDDA"/>
			<stop  offset="0.3911" style="stop-color:#C7CDDA"/>
			<stop  offset="0.5" style="stop-color:#E5E8EE"/>
			<stop  offset="0.6341" style="stop-color:#FFFFFF"/>
			<stop  offset="0.7737" style="stop-color:#E5E8EE"/>
			<stop  offset="0.9078" style="stop-color:#ACB8C3"/>
			<stop  offset="1" style="stop-color:#525D6B"/>
		</linearGradient>
		<path class="st11" d="M437.86,53.77c4.75,0,9.09,0.84,13.02,2.51c3.93,1.67,7.3,3.94,10.12,6.82c2.82,2.88,5.02,6.23,6.6,10.07
			c1.58,3.84,2.38,7.93,2.38,12.27v0.18c0,4.34-0.79,8.43-2.38,12.27c-1.58,3.84-3.81,7.21-6.69,10.12c-2.87,2.9-6.28,5.2-10.2,6.91
			c-3.93,1.7-8.27,2.55-13.02,2.55c-4.75,0-9.09-0.84-13.02-2.51c-3.93-1.67-7.3-3.94-10.12-6.82c-2.82-2.87-5.02-6.23-6.6-10.07
			c-1.58-3.84-2.38-7.93-2.38-12.27v-0.18c0-4.34,0.79-8.43,2.38-12.27c1.58-3.84,3.81-7.22,6.69-10.12
			c2.87-2.9,6.27-5.21,10.2-6.91C428.77,54.62,433.11,53.77,437.86,53.77 M437.86,107.52c3.03,0,5.82-0.57,8.36-1.71
			c2.54-1.15,4.71-2.7,6.52-4.66c1.81-1.96,3.23-4.27,4.25-6.91c1.02-2.64,1.53-5.45,1.53-8.45v-0.18c0-2.99-0.51-5.82-1.53-8.49
			c-1.02-2.67-2.46-4.98-4.29-6.95c-1.84-1.96-4.04-3.53-6.61-4.71c-2.57-1.17-5.37-1.76-8.41-1.76c-3.04,0-5.83,0.57-8.37,1.72
			c-2.54,1.14-4.72,2.7-6.53,4.66c-1.81,1.97-3.23,4.27-4.25,6.91c-1.02,2.64-1.53,5.46-1.53,8.45v0.18c0,2.99,0.51,5.82,1.53,8.49
			c1.02,2.67,2.46,4.99,4.29,6.95c1.84,1.97,4.04,3.54,6.61,4.71C432.02,106.93,434.82,107.52,437.86,107.52 M437.86,51.18
			c-5.09,0-9.82,0.93-14.05,2.77c-4.22,1.82-7.92,4.33-11.02,7.46c-3.1,3.13-5.54,6.82-7.24,10.95c-1.71,4.14-2.57,8.6-2.57,13.26
			c0,4.83,0.87,9.29,2.57,13.44c1.7,4.13,4.11,7.8,7.14,10.9c3.05,3.11,6.73,5.59,10.95,7.39c4.23,1.8,8.95,2.71,14.03,2.71
			c5.08,0,9.81-0.93,14.05-2.76c4.22-1.83,7.92-4.34,11.02-7.46c3.1-3.14,5.54-6.82,7.24-10.95c1.71-4.14,2.57-8.6,2.57-13.26
			c0-4.83-0.87-9.29-2.57-13.43c-1.7-4.13-4.11-7.8-7.14-10.9c-3.05-3.11-6.73-5.59-10.95-7.39
			C447.66,52.09,442.94,51.18,437.86,51.18L437.86,51.18z M437.86,104.93c-2.65,0-5.12-0.51-7.34-1.52c-2.25-1.03-4.2-2.41-5.8-4.12
			c-1.6-1.71-2.87-3.77-3.77-6.11c-0.9-2.35-1.36-4.9-1.36-7.56c0-2.84,0.46-5.36,1.36-7.69c0.9-2.32,2.16-4.37,3.74-6.09
			c1.56-1.7,3.48-3.06,5.69-4.05c2.19-0.99,4.65-1.49,7.3-1.49c2.64,0,5.11,0.51,7.34,1.53c2.25,1.03,4.2,2.41,5.79,4.12
			c1.6,1.71,2.87,3.77,3.77,6.11c0.9,2.36,1.36,4.91,1.36,7.56c0,2.83-0.46,5.36-1.36,7.69c-0.9,2.32-2.16,4.37-3.74,6.08
			c-1.56,1.7-3.47,3.06-5.69,4.06C442.97,104.43,440.51,104.93,437.86,104.93L437.86,104.93z"/>
	</g>
	<g>
		<linearGradient id="SVGID_13_" gradientUnits="userSpaceOnUse" x1="480.7444" y1="114.0701" x2="531.0645" y2="63.75">
			<stop  offset="0" style="stop-color:#272D34"/>
			<stop  offset="0.1173" style="stop-color:#575F67"/>
			<stop  offset="0.3603" style="stop-color:#5E666C"/>
			<stop  offset="0.7631" style="stop-color:#8B8E91"/>
			<stop  offset="1" style="stop-color:#272C30"/>
		</linearGradient>
		<path class="st12" d="M483.08,54.82h27.45c3.87,0,7.3,0.54,10.29,1.63c2.99,1.09,5.48,2.59,7.48,4.53c1.64,1.7,2.9,3.67,3.78,5.89
			c0.88,2.23,1.32,4.69,1.32,7.39v0.18c0,2.52-0.37,4.79-1.1,6.82c-0.73,2.02-1.74,3.81-3.04,5.37c-1.29,1.55-2.83,2.88-4.62,3.96
			c-1.79,1.09-3.77,1.92-5.94,2.51l16.62,23.31h-12.75L507.4,94.94h-0.18h-13.41v21.46h-10.73V54.82z M509.69,85.35
			c3.88,0,6.97-0.93,9.27-2.78c2.29-1.86,3.44-4.37,3.44-7.55v-0.18c0-3.36-1.12-5.91-3.36-7.64c-2.23-1.74-5.38-2.61-9.44-2.61
			h-15.79v20.76H509.69z"/>
		<linearGradient id="SVGID_14_" gradientUnits="userSpaceOnUse" x1="480.4879" y1="85.6116" x2="540.3538" y2="85.6116">
			<stop  offset="8.379890e-03" style="stop-color:#E5E8EE"/>
			<stop  offset="0.2263" style="stop-color:#C7CDDA"/>
			<stop  offset="0.3911" style="stop-color:#C7CDDA"/>
			<stop  offset="0.5" style="stop-color:#E5E8EE"/>
			<stop  offset="0.6341" style="stop-color:#FFFFFF"/>
			<stop  offset="0.7737" style="stop-color:#E5E8EE"/>
			<stop  offset="0.9078" style="stop-color:#ACB8C3"/>
			<stop  offset="1" style="stop-color:#525D6B"/>
		</linearGradient>
		<path class="st13" d="M510.52,54.82c3.87,0,7.3,0.54,10.29,1.63c2.99,1.09,5.48,2.59,7.48,4.53c1.64,1.7,2.9,3.67,3.78,5.89
			c0.88,2.23,1.32,4.69,1.32,7.39v0.18c0,2.52-0.37,4.79-1.1,6.82c-0.73,2.02-1.74,3.81-3.03,5.37c-1.29,1.55-2.83,2.88-4.62,3.96
			c-1.79,1.09-3.77,1.92-5.94,2.51l16.62,23.31h-12.75L507.4,94.94h-0.18h-13.41v21.46h-10.73V54.82H510.52 M493.81,85.35h15.88
			c3.88,0,6.97-0.93,9.27-2.78c2.29-1.86,3.44-4.37,3.44-7.55v-0.18c0-3.36-1.12-5.91-3.36-7.64c-2.23-1.74-5.38-2.61-9.44-2.61
			h-15.79V85.35 M510.52,52.23h-27.45h-2.59v2.59v61.58v2.59h2.59h10.73h2.59v-2.59V97.53h9.66l14.4,20.37l0.77,1.09h1.34h12.75
			h5.02l-2.92-4.09l-14.61-20.49c1.11-0.47,2.16-1.01,3.16-1.61c2.03-1.23,3.8-2.75,5.27-4.52c1.47-1.77,2.64-3.84,3.48-6.14
			c0.83-2.3,1.25-4.89,1.25-7.7c0-3.18-0.5-5.99-1.5-8.52c-1-2.53-2.46-4.8-4.33-6.74c-2.31-2.24-5.14-3.96-8.46-5.17
			C518.44,52.83,514.68,52.23,510.52,52.23L510.52,52.23z M496.4,67.18h13.21c3.45,0,6.09,0.69,7.85,2.06
			c1.59,1.23,2.36,3.06,2.36,5.6c0,2.59-0.79,4.35-2.48,5.72c-1.81,1.46-4.38,2.21-7.64,2.21H496.4V67.18L496.4,67.18z"/>
	</g>
	<g>
		<linearGradient id="SVGID_15_" gradientUnits="userSpaceOnUse" x1="542.7867" y1="112.5086" x2="596.3621" y2="58.9332">
			<stop  offset="0" style="stop-color:#272D34"/>
			<stop  offset="0.1173" style="stop-color:#575F67"/>
			<stop  offset="0.3603" style="stop-color:#5E666C"/>
			<stop  offset="0.7631" style="stop-color:#8B8E91"/>
			<stop  offset="1" style="stop-color:#272C30"/>
		</linearGradient>
		<path class="st14" d="M546.68,54.82h45.57v9.77h-34.84v15.83h30.88v9.76h-30.88v16.45h35.27v9.76h-46.01V54.82z"/>
		<linearGradient id="SVGID_16_" gradientUnits="userSpaceOnUse" x1="544.092" y1="85.6116" x2="595.2756" y2="85.6116">
			<stop  offset="8.379890e-03" style="stop-color:#E5E8EE"/>
			<stop  offset="0.2263" style="stop-color:#C7CDDA"/>
			<stop  offset="0.3911" style="stop-color:#C7CDDA"/>
			<stop  offset="0.5" style="stop-color:#E5E8EE"/>
			<stop  offset="0.6341" style="stop-color:#FFFFFF"/>
			<stop  offset="0.7737" style="stop-color:#E5E8EE"/>
			<stop  offset="0.9078" style="stop-color:#ACB8C3"/>
			<stop  offset="1" style="stop-color:#525D6B"/>
		</linearGradient>
		<path class="st15" d="M592.25,54.82v9.77h-34.84v15.83h30.88v9.76h-30.88v16.45h35.27v9.76h-46.01V54.82H592.25 M594.84,52.23
			h-2.59h-45.57h-2.59v2.59v61.58v2.59h2.59h46.01h2.59v-2.59v-9.76v-2.59h-2.59H560V92.77h28.29h2.59v-2.59v-9.76v-2.59h-2.59H560
			V67.18h32.25h2.59v-2.59v-9.77V52.23L594.84,52.23z"/>
	</g>
</g>
</svg>
